<svg width="177" height="96" viewBox="0 0 177 96" fill="none" xmlns="http://www.w3.org/2000/svg">
<path d="M175.225 15.7187C138.782 16.8943 102.887 29.3549 67.3146 36.7013C52.5862 39.7431 37.8289 41.0839 23.0178 43.3625C19.8419 43.8511 4.58638 50.5765 2.03517 48.0253C1.14861 47.1388 17.3066 36.1172 18.6881 35.0361C26.7756 28.7067 34.6487 22.1344 42.6683 15.7187C49.1846 10.5056 71.9448 1.14174 63.6509 2.06329C50.1574 3.56257 33.6474 25.067 23.684 33.0377C17.52 37.9689 9.07046 44.8248 5.03269 51.689C3.53424 54.2363 1.55784 54.6865 5.03269 54.6865C18.2577 54.6865 28.6487 57.1127 40.3369 63.6791C52.7244 70.6384 77.3801 78.888 82.3022 93.6543" stroke="white" stroke-width="3" stroke-linecap="round" stroke-linejoin="round"/>
</svg>
